<svg xmlns="http://www.w3.org/2000/svg" xmlns:xlink="http://www.w3.org/1999/xlink" width="393" height="851" viewBox="0 0 393 851">
  <defs>
    <clipPath id="clip-Google_Pixel_5_1">
      <rect width="393" height="851"/>
    </clipPath>
  </defs>
  <g id="Google_Pixel_5_1" data-name="Google Pixel 5 – 1" clip-path="url(#clip-Google_Pixel_5_1)">
    <rect width="393" height="851" fill="#301df0"/>
    <g id="Rectangle_1" data-name="Rectangle 1" transform="translate(0 -11)" fill="#301df0" stroke="#301df0" stroke-width="1">
      <rect width="393" height="241" stroke="none"/>
      <rect x="0.5" y="0.5" width="392" height="240" fill="none"/>
    </g>
    <g id="Ellipse_1" data-name="Ellipse 1" transform="translate(224 -49)" fill="#fbfb2c" stroke="#fbfb2c" stroke-width="1">
      <ellipse cx="158" cy="139.5" rx="158" ry="139.5" stroke="none"/>
      <ellipse cx="158" cy="139.5" rx="157.5" ry="139" fill="none"/>
    </g>
    <path id="Path_1" data-name="Path 1" d="M9.784,136.6" fill="none" stroke="#707070" stroke-width="1"/>
    <g id="Ellipse_2" data-name="Ellipse 2" transform="translate(51 379)" fill="#fff" stroke="#707070" stroke-width="1">
      <ellipse cx="39.5" cy="39" rx="39.5" ry="39" stroke="none"/>
      <ellipse cx="39.5" cy="39" rx="39" ry="38.5" fill="none"/>
    </g>
    <g id="Ellipse_3" data-name="Ellipse 3" transform="translate(90 410)" fill="#fff" stroke="#707070" stroke-width="1">
      <ellipse cx="52.5" cy="41" rx="52.5" ry="41" stroke="none"/>
      <ellipse cx="52.5" cy="41" rx="52" ry="40.5" fill="none"/>
    </g>
    <g id="Ellipse_4" data-name="Ellipse 4" transform="translate(152 441)" fill="#fff" stroke="#707070" stroke-width="1">
      <ellipse cx="66" cy="30" rx="66" ry="30" stroke="none"/>
      <ellipse cx="66" cy="30" rx="65.5" ry="29.5" fill="none"/>
    </g>
    <g id="Ellipse_5" data-name="Ellipse 5" transform="translate(152 441)" fill="#fff" stroke="#707070" stroke-width="1">
      <ellipse cx="66" cy="30" rx="66" ry="30" stroke="none"/>
      <ellipse cx="66" cy="30" rx="65.5" ry="29.5" fill="none"/>
    </g>
    <g id="Ellipse_6" data-name="Ellipse 6" transform="translate(143 379)" fill="#fff" stroke="#707070" stroke-width="1">
      <ellipse cx="58.5" cy="46" rx="58.5" ry="46" stroke="none"/>
      <ellipse cx="58.5" cy="46" rx="58" ry="45.5" fill="none"/>
    </g>
    <g id="Ellipse_7" data-name="Ellipse 7" transform="translate(104 363)" fill="#fff" stroke="#707070" stroke-width="1">
      <ellipse cx="35" cy="39" rx="35" ry="39" stroke="none"/>
      <ellipse cx="35" cy="39" rx="34.5" ry="38.5" fill="none"/>
    </g>
    <g id="Ellipse_8" data-name="Ellipse 8" transform="translate(232 402)" fill="#fff" stroke="#707070" stroke-width="1">
      <ellipse cx="55" cy="34.5" rx="55" ry="34.5" stroke="none"/>
      <ellipse cx="55" cy="34.5" rx="54.5" ry="34" fill="none"/>
    </g>
    <g id="Ellipse_9" data-name="Ellipse 9" transform="translate(205 363)" fill="#fff" stroke="#707070" stroke-width="1">
      <ellipse cx="46.5" cy="31" rx="46.5" ry="31" stroke="none"/>
      <ellipse cx="46.5" cy="31" rx="46" ry="30.5" fill="none"/>
    </g>
    <g id="Ellipse_10" data-name="Ellipse 10" transform="translate(143 355)" fill="#fff" stroke="#707070" stroke-width="1">
      <ellipse cx="44.5" cy="27.5" rx="44.5" ry="27.5" stroke="none"/>
      <ellipse cx="44.5" cy="27.5" rx="44" ry="27" fill="none"/>
    </g>
    <path id="Path_2" data-name="Path 2" d="M122,690.4,89.9,734.7,122,750.578,89.9,783.806" transform="translate(8 -177)" fill="none" stroke="#707070" stroke-width="1"/>
    <path id="Path_3" data-name="Path 3" d="M290,678l-33.962,45.627L290,749.471l-33.962,43.011" transform="translate(8 -177)" fill="none" stroke="#707070" stroke-width="1"/>
    <path id="Path_4" data-name="Path 4" d="M187,722.335l-25.845,59.072L187,807.25l-25.845,33.228" transform="translate(8 -177)" fill="none" stroke="#707070" stroke-width="1"/>
    <g id="Ellipse_11" data-name="Ellipse 11" transform="translate(-27 233)" fill="#fff" stroke="#707070" stroke-width="1">
      <ellipse cx="39.5" cy="39" rx="39.5" ry="39" stroke="none"/>
      <ellipse cx="39.5" cy="39" rx="39" ry="38.5" fill="none"/>
    </g>
    <g id="Ellipse_12" data-name="Ellipse 12" transform="translate(12 264)" fill="#fff" stroke="#707070" stroke-width="1">
      <ellipse cx="52.5" cy="41" rx="52.5" ry="41" stroke="none"/>
      <ellipse cx="52.5" cy="41" rx="52" ry="40.5" fill="none"/>
    </g>
    <g id="Ellipse_13" data-name="Ellipse 13" transform="translate(74 295)" fill="#fff" stroke="#707070" stroke-width="1">
      <ellipse cx="66" cy="30" rx="66" ry="30" stroke="none"/>
      <ellipse cx="66" cy="30" rx="65.5" ry="29.5" fill="none"/>
    </g>
    <g id="Ellipse_14" data-name="Ellipse 14" transform="translate(74 295)" fill="#fff" stroke="#707070" stroke-width="1">
      <ellipse cx="66" cy="30" rx="66" ry="30" stroke="none"/>
      <ellipse cx="66" cy="30" rx="65.5" ry="29.5" fill="none"/>
    </g>
    <g id="Ellipse_15" data-name="Ellipse 15" transform="translate(65 233)" fill="#fff" stroke="#707070" stroke-width="1">
      <ellipse cx="58.5" cy="46" rx="58.5" ry="46" stroke="none"/>
      <ellipse cx="58.5" cy="46" rx="58" ry="45.5" fill="none"/>
    </g>
    <g id="Ellipse_16" data-name="Ellipse 16" transform="translate(26 217)" fill="#fff" stroke="#707070" stroke-width="1">
      <ellipse cx="35" cy="39" rx="35" ry="39" stroke="none"/>
      <ellipse cx="35" cy="39" rx="34.5" ry="38.5" fill="none"/>
    </g>
    <g id="Ellipse_17" data-name="Ellipse 17" transform="translate(154 256)" fill="#fff" stroke="#707070" stroke-width="1">
      <ellipse cx="55" cy="34.5" rx="55" ry="34.5" stroke="none"/>
      <ellipse cx="55" cy="34.5" rx="54.5" ry="34" fill="none"/>
    </g>
    <g id="Ellipse_18" data-name="Ellipse 18" transform="translate(127 217)" fill="#fff" stroke="#707070" stroke-width="1">
      <ellipse cx="46.5" cy="31" rx="46.5" ry="31" stroke="none"/>
      <ellipse cx="46.5" cy="31" rx="46" ry="30.5" fill="none"/>
    </g>
    <g id="Ellipse_19" data-name="Ellipse 19" transform="translate(65 209)" fill="#fff" stroke="#707070" stroke-width="1">
      <ellipse cx="44.5" cy="27.5" rx="44.5" ry="27.5" stroke="none"/>
      <ellipse cx="44.5" cy="27.5" rx="44" ry="27" fill="none"/>
    </g>
    <g id="Ellipse_20" data-name="Ellipse 20" transform="translate(174 257)" fill="#fff" stroke="#707070" stroke-width="1">
      <ellipse cx="39.5" cy="39" rx="39.5" ry="39" stroke="none"/>
      <ellipse cx="39.5" cy="39" rx="39" ry="38.5" fill="none"/>
    </g>
    <g id="Ellipse_21" data-name="Ellipse 21" transform="translate(213 288)" fill="#fff" stroke="#707070" stroke-width="1">
      <ellipse cx="52.5" cy="41" rx="52.5" ry="41" stroke="none"/>
      <ellipse cx="52.5" cy="41" rx="52" ry="40.5" fill="none"/>
    </g>
    <g id="Ellipse_22" data-name="Ellipse 22" transform="translate(275 319)" fill="#fff" stroke="#707070" stroke-width="1">
      <ellipse cx="66" cy="30" rx="66" ry="30" stroke="none"/>
      <ellipse cx="66" cy="30" rx="65.5" ry="29.5" fill="none"/>
    </g>
    <g id="Ellipse_23" data-name="Ellipse 23" transform="translate(275 319)" fill="#fff" stroke="#707070" stroke-width="1">
      <ellipse cx="66" cy="30" rx="66" ry="30" stroke="none"/>
      <ellipse cx="66" cy="30" rx="65.5" ry="29.5" fill="none"/>
    </g>
    <g id="Ellipse_24" data-name="Ellipse 24" transform="translate(266 257)" fill="#fff" stroke="#707070" stroke-width="1">
      <ellipse cx="58.5" cy="46" rx="58.5" ry="46" stroke="none"/>
      <ellipse cx="58.5" cy="46" rx="58" ry="45.5" fill="none"/>
    </g>
    <g id="Ellipse_25" data-name="Ellipse 25" transform="translate(227 241)" fill="#fff" stroke="#707070" stroke-width="1">
      <ellipse cx="35" cy="39" rx="35" ry="39" stroke="none"/>
      <ellipse cx="35" cy="39" rx="34.5" ry="38.5" fill="none"/>
    </g>
    <g id="Ellipse_26" data-name="Ellipse 26" transform="translate(355 280)" fill="#fff" stroke="#707070" stroke-width="1">
      <ellipse cx="55" cy="34.5" rx="55" ry="34.5" stroke="none"/>
      <ellipse cx="55" cy="34.5" rx="54.5" ry="34" fill="none"/>
    </g>
    <g id="Ellipse_27" data-name="Ellipse 27" transform="translate(328 241)" fill="#fff" stroke="#707070" stroke-width="1">
      <ellipse cx="46.5" cy="31" rx="46.5" ry="31" stroke="none"/>
      <ellipse cx="46.5" cy="31" rx="46" ry="30.5" fill="none"/>
    </g>
    <g id="Ellipse_28" data-name="Ellipse 28" transform="translate(266 233)" fill="#fff" stroke="#707070" stroke-width="1">
      <ellipse cx="44.5" cy="27.5" rx="44.5" ry="27.5" stroke="none"/>
      <ellipse cx="44.5" cy="27.5" rx="44" ry="27" fill="none"/>
    </g>
    <g id="Ellipse_29" data-name="Ellipse 29" transform="translate(51 379)" fill="#fff" stroke="#707070" stroke-width="1">
      <ellipse cx="39.5" cy="39" rx="39.5" ry="39" stroke="none"/>
      <ellipse cx="39.5" cy="39" rx="39" ry="38.5" fill="none"/>
    </g>
    <g id="Ellipse_30" data-name="Ellipse 30" transform="translate(90 410)" fill="#fff" stroke="#707070" stroke-width="1">
      <ellipse cx="52.5" cy="41" rx="52.5" ry="41" stroke="none"/>
      <ellipse cx="52.5" cy="41" rx="52" ry="40.5" fill="none"/>
    </g>
    <g id="Ellipse_31" data-name="Ellipse 31" transform="translate(152 441)" fill="#fff" stroke="#707070" stroke-width="1">
      <ellipse cx="66" cy="30" rx="66" ry="30" stroke="none"/>
      <ellipse cx="66" cy="30" rx="65.5" ry="29.5" fill="none"/>
    </g>
    <g id="Ellipse_32" data-name="Ellipse 32" transform="translate(152 441)" fill="#fff" stroke="#707070" stroke-width="1">
      <ellipse cx="66" cy="30" rx="66" ry="30" stroke="none"/>
      <ellipse cx="66" cy="30" rx="65.5" ry="29.5" fill="none"/>
    </g>
    <g id="Ellipse_33" data-name="Ellipse 33" transform="translate(143 379)" fill="#fff" stroke="#707070" stroke-width="1">
      <ellipse cx="58.5" cy="46" rx="58.5" ry="46" stroke="none"/>
      <ellipse cx="58.5" cy="46" rx="58" ry="45.5" fill="none"/>
    </g>
    <g id="Ellipse_34" data-name="Ellipse 34" transform="translate(104 363)" fill="#fff" stroke="#707070" stroke-width="1">
      <ellipse cx="35" cy="39" rx="35" ry="39" stroke="none"/>
      <ellipse cx="35" cy="39" rx="34.5" ry="38.5" fill="none"/>
    </g>
    <g id="Ellipse_35" data-name="Ellipse 35" transform="translate(232 402)" fill="#fff" stroke="#707070" stroke-width="1">
      <ellipse cx="55" cy="34.5" rx="55" ry="34.5" stroke="none"/>
      <ellipse cx="55" cy="34.5" rx="54.5" ry="34" fill="none"/>
    </g>
    <g id="Ellipse_36" data-name="Ellipse 36" transform="translate(205 363)" fill="#fff" stroke="#707070" stroke-width="1">
      <ellipse cx="46.5" cy="31" rx="46.5" ry="31" stroke="none"/>
      <ellipse cx="46.5" cy="31" rx="46" ry="30.5" fill="none"/>
    </g>
    <g id="Ellipse_37" data-name="Ellipse 37" transform="translate(143 355)" fill="#fff" stroke="#707070" stroke-width="1">
      <ellipse cx="44.5" cy="27.5" rx="44.5" ry="27.5" stroke="none"/>
      <ellipse cx="44.5" cy="27.5" rx="44" ry="27" fill="none"/>
    </g>
    <path id="Path_5" data-name="Path 5" d="M187,722.335l-25.845,59.072L187,807.25l-25.845,33.228" transform="translate(8 -177)" fill="none" stroke="#707070" stroke-width="1"/>
  </g>
</svg>
